<svg width="139" height="33" viewBox="0 0 139 33" fill="none" xmlns="http://www.w3.org/2000/svg">
<g clip-path="url(#clip0_3042_615)">
<path d="M39.8984 23.7009H48.9806V21.1147H42.6679V9.03906H39.8984V23.7009Z" fill="#1D1E1C"/>
<path d="M54.4382 24.0057C55.5379 24.0057 56.5051 23.7613 57.34 23.2726C58.1817 22.7771 58.8367 22.0949 59.3051 21.2261C59.7803 20.3504 60.0179 19.3424 60.0179 18.2021C60.0179 17.0685 59.7836 16.0673 59.3153 15.1984C58.8469 14.3228 58.1919 13.6372 57.3502 13.1417C56.5153 12.6462 55.5447 12.3984 54.4382 12.3984C53.3521 12.3984 52.3916 12.6428 51.5567 13.1316C50.7219 13.6203 50.0668 14.3024 49.5916 15.1781C49.1165 16.0469 48.8789 17.0549 48.8789 18.2021C48.8789 19.3356 49.1097 20.3403 49.5713 21.2159C50.0396 22.0848 50.6913 22.7669 51.5262 23.2624C52.3611 23.758 53.3318 24.0057 54.4382 24.0057ZM54.4382 21.4196C53.5761 21.4196 52.9211 21.1311 52.4731 20.5541C52.0319 19.9704 51.8113 19.1864 51.8113 18.2021C51.8113 17.245 52.0217 16.4712 52.4426 15.8806C52.8702 15.2833 53.5354 14.9846 54.4382 14.9846C55.3139 14.9846 55.9723 15.2765 56.4135 15.8603C56.8615 16.444 57.0855 17.2246 57.0855 18.2021C57.0855 19.1456 56.8649 19.9194 56.4236 20.5236C55.9892 21.1208 55.3274 21.4196 54.4382 21.4196Z" fill="#1D1E1C"/>
<path d="M65.4963 24.0057C66.0122 24.0057 66.4873 23.9446 66.9218 23.8224C67.363 23.7003 67.7635 23.5272 68.1232 23.3032V24.413C68.1368 24.8203 68.0315 25.1596 67.8075 25.4312C67.5903 25.7095 67.2985 25.9165 66.9319 26.0523C66.5654 26.1948 66.1751 26.2661 65.7611 26.2661C65.3741 26.2661 65.0143 26.1812 64.6818 26.0116C64.3559 25.8419 64.1047 25.5941 63.9283 25.2683L61.3625 26.5104C61.7833 27.2232 62.384 27.7968 63.1647 28.2312C63.9453 28.6724 64.8039 28.893 65.7407 28.893C66.5484 28.893 67.2985 28.7844 67.9908 28.5672C68.6832 28.3568 69.267 28.0344 69.7421 27.5999C70.224 27.1655 70.5533 26.6123 70.7298 25.9403C70.7908 25.7027 70.8315 25.4617 70.8519 25.2173C70.8791 24.9798 70.8927 24.7252 70.8927 24.4537V12.7039H68.4694V13.3148C68.096 13.0229 67.6718 12.7989 67.1967 12.6428C66.7283 12.4799 66.2091 12.3984 65.6388 12.3984C64.5867 12.3984 63.6703 12.6496 62.8898 13.1519C62.1091 13.6542 61.5016 14.3432 61.0672 15.2188C60.6395 16.0876 60.4258 17.0821 60.4258 18.2021C60.4258 19.3017 60.6362 20.2893 61.0571 21.165C61.4847 22.0406 62.0786 22.733 62.8388 23.2421C63.5991 23.7512 64.4849 24.0057 65.4963 24.0057ZM65.9443 21.5417C65.347 21.5417 64.8583 21.3924 64.4781 21.0937C64.098 20.7951 63.8163 20.3946 63.6331 19.8923C63.4498 19.3832 63.3581 18.8198 63.3581 18.2021C63.3581 17.5912 63.4531 17.0346 63.6432 16.5323C63.8333 16.0232 64.1251 15.6193 64.5188 15.3206C64.9193 15.0152 65.4284 14.8624 66.0461 14.8624C66.915 14.8624 67.536 15.1713 67.9094 15.789C68.2827 16.3999 68.4694 17.2043 68.4694 18.2021C68.4694 19.1999 68.2793 20.0076 67.8992 20.6253C67.5259 21.2363 66.8743 21.5417 65.9443 21.5417Z" fill="#1D1E1C"/>
<path d="M77.4694 24.0057C78.5691 24.0057 79.5364 23.7613 80.3713 23.2726C81.2128 22.7771 81.868 22.0949 82.336 21.2261C82.8112 20.3504 83.0488 19.3424 83.0488 18.2021C83.0488 17.0685 82.8152 16.0673 82.3464 15.1984C81.8784 14.3228 81.2232 13.6372 80.3814 13.1417C79.5466 12.6462 78.5758 12.3984 77.4694 12.3984C76.3834 12.3984 75.4229 12.6428 74.588 13.1316C73.7531 13.6203 73.0981 14.3024 72.6229 15.1781C72.1478 16.0469 71.9102 17.0549 71.9102 18.2021C71.9102 19.3356 72.141 20.3403 72.6026 21.2159C73.0709 22.0848 73.7226 22.7669 74.5574 23.2624C75.3924 23.758 76.363 24.0057 77.4694 24.0057ZM77.4694 21.4196C76.6074 21.4196 75.9523 21.1311 75.5043 20.5541C75.0631 19.9704 74.8426 19.1864 74.8426 18.2021C74.8426 17.245 75.053 16.4712 75.4738 15.8806C75.9014 15.2833 76.5666 14.9846 77.4694 14.9846C78.3451 14.9846 79.0035 15.2765 79.4447 15.8603C79.8927 16.444 80.1167 17.2246 80.1167 18.2021C80.1167 19.1456 79.8961 19.9194 79.4549 20.5236C79.0205 21.1208 78.3586 21.4196 77.4694 21.4196Z" fill="#1D1E1C"/>
<path d="M84.2695 11.176H87.0391V8.73242H84.2695V11.176ZM84.2695 23.6997H87.0391V12.7033H84.2695V23.6997Z" fill="#1D1E1C"/>
<path d="M88.8496 28.5876H91.6392V23.3032C91.9992 23.5272 92.396 23.7003 92.8304 23.8224C93.272 23.9446 93.7504 24.0057 94.2664 24.0057C95.2776 24.0057 96.164 23.7512 96.924 23.2421C97.684 22.733 98.2744 22.0406 98.6952 21.165C99.1232 20.2893 99.3368 19.3017 99.3368 18.2021C99.3368 17.0821 99.12 16.0876 98.6856 15.2188C98.2576 14.3432 97.6536 13.6542 96.8728 13.1519C96.092 12.6496 95.176 12.3984 94.124 12.3984C93.5536 12.3984 93.0312 12.4799 92.556 12.6428C92.0872 12.7989 91.6664 13.0229 91.2936 13.3148V12.7039H88.8496V28.5876ZM93.8184 21.5417C92.8952 21.5417 92.244 21.2363 91.8632 20.6253C91.4832 20.0076 91.2936 19.1999 91.2936 18.2021C91.2936 17.2043 91.48 16.3999 91.8536 15.789C92.2336 15.1713 92.8544 14.8624 93.7168 14.8624C94.3344 14.8624 94.84 15.0152 95.2336 15.3206C95.6344 15.6193 95.9296 16.0232 96.1192 16.5323C96.3096 17.0346 96.4048 17.5912 96.4048 18.2021C96.4048 18.8198 96.3128 19.3832 96.1296 19.8923C95.9464 20.3946 95.6648 20.7951 95.2848 21.0937C94.9048 21.3924 94.416 21.5417 93.8184 21.5417Z" fill="#1D1E1C"/>
<path d="M104.355 24.0057C105.794 24.0057 106.921 23.6833 107.735 23.0384C108.55 22.3936 108.957 21.5078 108.957 20.381C108.957 19.5257 108.692 18.8504 108.163 18.3548C107.64 17.8593 106.751 17.4486 105.495 17.1228C104.64 16.9056 104.002 16.7291 103.581 16.5933C103.167 16.4576 102.892 16.3252 102.756 16.1963C102.627 16.0673 102.563 15.9078 102.563 15.7177C102.563 15.3987 102.715 15.1544 103.021 14.9846C103.334 14.8149 103.744 14.7471 104.253 14.781C105.332 14.8624 105.923 15.324 106.025 16.1657L108.855 15.6566C108.713 14.6588 108.224 13.868 107.389 13.2843C106.554 12.6937 105.489 12.3984 104.192 12.3984C102.862 12.3984 101.799 12.7107 101.005 13.3352C100.211 13.9596 99.8137 14.8013 99.8137 15.8603C99.8137 16.702 100.089 17.3672 100.638 17.8559C101.188 18.3379 102.135 18.7519 103.479 19.0981C104.274 19.3085 104.857 19.4782 105.23 19.6072C105.61 19.7361 105.855 19.8685 105.963 20.0043C106.072 20.1332 106.126 20.3064 106.126 20.5236C106.126 20.8697 105.99 21.1412 105.719 21.3381C105.448 21.5281 105.061 21.6232 104.558 21.6232C103.947 21.6232 103.442 21.4772 103.042 21.1853C102.648 20.8935 102.393 20.4896 102.278 19.9737L99.4473 20.4013C99.6305 21.5485 100.146 22.4377 100.995 23.069C101.85 23.6935 102.97 24.0057 104.355 24.0057Z" fill="#1D1E1C"/>
<path d="M114.064 24.0254C114.859 24.0254 115.551 23.893 116.142 23.6282C116.732 23.3635 117.228 23.0106 117.628 22.5694V23.6995H120.072V12.7031H117.282V18.2828C117.282 18.9616 117.204 19.5114 117.048 19.9322C116.899 20.3463 116.705 20.6619 116.468 20.8791C116.23 21.0896 115.976 21.2321 115.704 21.3068C115.432 21.3814 115.178 21.4188 114.94 21.4188C114.35 21.4188 113.892 21.2864 113.566 21.0217C113.247 20.757 113.016 20.4278 112.873 20.0341C112.731 19.6403 112.646 19.2501 112.619 18.8631C112.592 18.4694 112.578 18.147 112.578 17.8958V12.7031H109.768V18.8734C109.768 19.0566 109.781 19.3485 109.808 19.749C109.836 20.1494 109.914 20.5941 110.043 21.0828C110.172 21.5647 110.385 22.0297 110.684 22.4777C110.99 22.9257 111.414 23.2956 111.957 23.5875C112.5 23.8794 113.203 24.0254 114.064 24.0254Z" fill="#1D1E1C"/>
<path d="M121.676 23.7006H124.465V17.0416C124.465 16.4104 124.638 15.8979 124.985 15.5042C125.337 15.1037 125.802 14.9035 126.38 14.9035C126.984 14.9035 127.456 15.1071 127.795 15.5144C128.141 15.9149 128.314 16.4783 128.314 17.2046V23.7006H131.084V17.0416C131.084 16.4104 131.257 15.8979 131.603 15.5042C131.956 15.1037 132.421 14.9035 132.997 14.9035C133.602 14.9035 134.073 15.1071 134.413 15.5144C134.759 15.9149 134.933 16.4783 134.933 17.2046V23.7006H137.701V16.4715C137.701 15.27 137.379 14.2994 136.734 13.5595C136.097 12.8128 135.149 12.4395 133.893 12.4395C133.188 12.4395 132.54 12.5922 131.949 12.8976C131.358 13.2031 130.887 13.6206 130.533 14.15C130.249 13.6342 129.841 13.2201 129.312 12.9079C128.782 12.5956 128.124 12.4395 127.337 12.4395C126.671 12.4395 126.061 12.5719 125.504 12.8366C124.947 13.0945 124.485 13.4509 124.119 13.9056V12.7042H121.676V23.7006Z" fill="#1D1E1C"/>
<path d="M16.6699 0.5C7.83336 0.5 0.669922 7.66344 0.669922 16.5C9.50648 16.5 16.6699 9.33656 16.6699 0.5Z" fill="#1D1E1C"/>
<path d="M16.6699 32.5C25.5065 32.5 32.6699 25.3366 32.6699 16.5C23.8334 16.5 16.6699 23.6634 16.6699 32.5Z" fill="#1D1E1C"/>
<path d="M16.6699 0.5C25.5065 0.5 32.6699 7.66344 32.6699 16.5C23.8334 16.5 16.6699 9.33656 16.6699 0.5Z" fill="#1D1E1C"/>
<path d="M16.6699 32.5C7.83336 32.5 0.669921 25.3366 0.669922 16.5C9.50648 16.5 16.6699 23.6634 16.6699 32.5Z" fill="#1D1E1C"/>
</g>
<defs>
<clipPath id="clip0_3042_615">
<rect width="137.6" height="32" fill="white" transform="translate(0.669922 0.5)"/>
</clipPath>
</defs>
</svg>
