<svg width="146" height="33" viewBox="0 0 146 33" fill="none" xmlns="http://www.w3.org/2000/svg">
<path d="M43.1844 21.8563C43.1844 22.5548 43.041 23.0916 42.7542 23.4665C42.4749 23.8416 42.0079 24.0291 41.3535 24.0291C40.7359 24.0291 40.2984 23.8416 40.041 23.4665C39.791 23.0916 39.666 22.5548 39.666 21.8563V10.1982C39.666 9.49966 39.791 8.9629 40.041 8.58789C40.2984 8.21289 40.7359 8.02539 41.3535 8.02539C42.0079 8.02539 42.4749 8.21289 42.7542 8.58789C43.041 8.9629 43.1844 9.49966 43.1844 10.1982V21.8563Z" fill="#1D1E1C"/>
<path d="M44.252 18.471C44.252 17.6915 44.3769 16.9562 44.627 16.265C44.8843 15.5665 45.2666 14.9562 45.774 14.4342C46.2888 13.9121 46.9285 13.4967 47.6932 13.1879C48.4652 12.879 49.3696 12.7246 50.4064 12.7246C51.3991 12.7246 52.2777 12.868 53.0424 13.1547C53.8072 13.4415 54.4505 13.8423 54.9725 14.357C55.4946 14.8643 55.8917 15.4709 56.1638 16.1768C56.4358 16.8753 56.5719 17.64 56.5719 18.471C56.5719 19.243 56.4431 19.9746 56.1858 20.6658C55.9285 21.3496 55.5424 21.9526 55.0277 22.4746C54.513 22.9893 53.8696 23.401 53.0976 23.7099C52.3255 24.0114 51.4284 24.1621 50.4064 24.1621C49.3991 24.1621 48.5094 24.0187 47.7372 23.7319C46.9725 23.4378 46.3292 23.0371 45.8072 22.5297C45.2924 22.0151 44.9027 21.4121 44.638 20.7209C44.3806 20.0224 44.252 19.2724 44.252 18.471ZM47.9248 18.471C47.9248 18.9562 47.9688 19.4195 48.0571 19.8606C48.1453 20.2944 48.2851 20.6768 48.4762 21.0077C48.6747 21.3385 48.9321 21.6033 49.2483 21.8018C49.5645 21.9929 49.9505 22.0886 50.4064 22.0886C50.8255 22.0886 51.1895 22.0004 51.4983 21.8238C51.8145 21.6474 52.0718 21.401 52.2704 21.0849C52.4762 20.7688 52.6307 20.39 52.7336 19.9489C52.8365 19.5003 52.888 19.0077 52.888 18.471C52.888 17.9856 52.8402 17.526 52.7447 17.0922C52.6564 16.6511 52.513 16.265 52.3144 15.9341C52.116 15.5959 51.8586 15.3312 51.5424 15.14C51.2336 14.9416 50.8549 14.8423 50.4064 14.8423C49.9578 14.8423 49.5755 14.9378 49.2593 15.129C48.9432 15.3202 48.6858 15.5812 48.4872 15.9121C48.2888 16.243 48.1453 16.629 48.0571 17.0702C47.9688 17.5113 47.9248 17.9783 47.9248 18.471Z" fill="#1D1E1C"/>
<path d="M65.6255 21.9005C65.4269 22.2682 65.1843 22.5806 64.8975 22.838C64.6182 23.0954 64.3056 23.3086 63.9601 23.4778C63.6218 23.6395 63.2579 23.7608 62.8682 23.8417C62.4858 23.9152 62.0924 23.952 61.688 23.952C61.0115 23.952 60.3939 23.8307 59.835 23.588C59.2762 23.3453 58.7946 22.9961 58.3902 22.5403C57.9931 22.077 57.6843 21.5108 57.4637 20.8417C57.2431 20.1725 57.1328 19.4078 57.1328 18.5476C57.1328 17.7388 57.2358 16.9814 57.4417 16.2755C57.6475 15.5696 57.9453 14.9557 58.3351 14.4336C58.7322 13.9116 59.2174 13.4998 59.791 13.1983C60.3644 12.8969 61.0189 12.7461 61.7542 12.7461C62.5924 12.7461 63.3351 12.9079 63.9821 13.2314C64.6365 13.5549 65.1991 14.0844 65.6697 14.8196V14.5329C65.6697 14.0035 65.813 13.6064 66.0998 13.3417C66.3939 13.0697 66.7983 12.9336 67.313 12.9336C67.6218 12.9336 67.8828 12.9851 68.0961 13.088C68.3093 13.1836 68.4784 13.3307 68.6034 13.5292C68.7285 13.7204 68.8167 13.9594 68.8682 14.2461C68.927 14.5255 68.9563 14.8454 68.9563 15.2057V22.5954C68.9563 23.4924 68.8425 24.2939 68.6145 24.9997C68.3939 25.7056 68.0483 26.3013 67.5777 26.7866C67.1071 27.2718 66.5042 27.6395 65.7689 27.8895C65.0336 28.1468 64.1586 28.2755 63.1439 28.2755C62.4307 28.2755 61.7983 28.2425 61.2468 28.1762C60.7027 28.1175 60.2321 28.0255 59.835 27.9005C59.438 27.7608 59.1366 27.6064 58.9306 27.4373C58.7322 27.2682 58.6329 27.0476 58.6329 26.7756C58.6329 26.6211 58.6549 26.4741 58.699 26.3343C58.7432 26.1947 58.8093 26.0697 58.8975 25.9594C58.9931 25.8564 59.1145 25.7719 59.2616 25.7056C59.4159 25.6469 59.6034 25.6174 59.824 25.6174C60.0593 25.6174 60.2946 25.6321 60.5299 25.6616C60.7725 25.6909 61.0226 25.7204 61.2799 25.7498C61.5446 25.7866 61.8203 25.8196 62.1071 25.8491C62.4012 25.8784 62.7174 25.8932 63.0556 25.8932C63.4601 25.8932 63.8203 25.8527 64.1366 25.7719C64.4527 25.6909 64.721 25.5476 64.9417 25.3417C65.1623 25.1358 65.3314 24.8601 65.449 24.5145C65.5667 24.1762 65.6255 23.7424 65.6255 23.213V21.9005ZM65.6255 18.4704C65.6255 17.9336 65.5851 17.4446 65.5042 17.0035C65.4307 16.5623 65.3019 16.1873 65.1181 15.8784C64.9343 15.5623 64.688 15.3196 64.3792 15.1505C64.0703 14.974 63.6843 14.8859 63.2211 14.8859C62.7652 14.8859 62.3866 14.9777 62.0851 15.1615C61.791 15.3453 61.5557 15.5991 61.3792 15.9226C61.2027 16.2461 61.0778 16.6248 61.0042 17.0587C60.938 17.4924 60.905 17.9557 60.905 18.4483C60.905 19.5733 61.1035 20.4189 61.5005 20.9851C61.8975 21.5513 62.4747 21.8344 63.2321 21.8344C63.5851 21.827 63.905 21.7608 64.1916 21.6358C64.4858 21.5035 64.7395 21.3013 64.9527 21.0292C65.1659 20.7571 65.3314 20.4115 65.449 19.9924C65.5667 19.5733 65.6255 19.066 65.6255 18.4704Z" fill="#1D1E1C"/>
<path d="M69.9688 18.471C69.9688 17.6915 70.0937 16.9562 70.3437 16.265C70.6011 15.5665 70.9834 14.9562 71.4908 14.4342C72.0055 13.9121 72.6452 13.4967 73.4099 13.1879C74.182 12.879 75.0864 12.7246 76.1232 12.7246C77.1158 12.7246 77.9944 12.868 78.7591 13.1547C79.5239 13.4415 80.1672 13.8423 80.6893 14.357C81.2114 14.8643 81.6085 15.4709 81.8805 16.1768C82.1526 16.8753 82.2886 17.64 82.2886 18.471C82.2886 19.243 82.1599 19.9746 81.9026 20.6658C81.6452 21.3496 81.2592 21.9526 80.7445 22.4746C80.2297 22.9893 79.5863 23.401 78.8143 23.7099C78.0423 24.0114 77.1452 24.1621 76.1232 24.1621C75.1158 24.1621 74.2261 24.0187 73.454 23.7319C72.6893 23.4378 72.0459 23.0371 71.5239 22.5297C71.0092 22.0151 70.6195 21.4121 70.3547 20.7209C70.0974 20.0224 69.9688 19.2724 69.9688 18.471ZM73.6415 18.471C73.6415 18.9562 73.6856 19.4195 73.7739 19.8606C73.8621 20.2944 74.0018 20.6768 74.193 21.0077C74.3915 21.3385 74.6488 21.6033 74.9651 21.8018C75.2812 21.9929 75.6673 22.0886 76.1232 22.0886C76.5423 22.0886 76.9063 22.0004 77.2151 21.8238C77.5312 21.6474 77.7886 21.401 77.9871 21.0849C78.193 20.7688 78.3474 20.39 78.4503 19.9489C78.5533 19.5003 78.6048 19.0077 78.6048 18.471C78.6048 17.9856 78.557 17.526 78.4614 17.0922C78.3732 16.6511 78.2297 16.265 78.0312 15.9341C77.8327 15.5959 77.5753 15.3312 77.2592 15.14C76.9504 14.9416 76.5717 14.8423 76.1232 14.8423C75.6746 14.8423 75.2922 14.9378 74.9761 15.129C74.6599 15.3202 74.4025 15.5812 74.204 15.9121C74.0055 16.243 73.8621 16.629 73.7739 17.0702C73.6856 17.5113 73.6415 17.9783 73.6415 18.471Z" fill="#1D1E1C"/>
<path d="M87.0199 9.00724C87.0199 9.24989 86.9647 9.46679 86.8544 9.65797C86.7441 9.8418 86.6008 9.99617 86.4243 10.1212C86.2478 10.2462 86.0419 10.3418 85.8066 10.4079C85.5787 10.4668 85.3434 10.4962 85.1007 10.4962C84.8434 10.4962 84.5971 10.4631 84.3618 10.3969C84.1338 10.3308 83.9317 10.2352 83.7552 10.1101C83.5787 9.97781 83.439 9.81973 83.336 9.63591C83.2331 9.45209 83.1816 9.24253 83.1816 9.00724C83.1816 8.794 83.2295 8.59915 83.325 8.42268C83.428 8.23886 83.564 8.08077 83.7331 7.94841C83.9022 7.81606 84.1045 7.71312 84.3398 7.63959C84.5751 7.56606 84.8324 7.5293 85.1118 7.5293C85.3544 7.5293 85.5897 7.56239 85.8177 7.62856C86.053 7.69474 86.2588 7.79032 86.4353 7.91533C86.6118 8.04033 86.7515 8.19474 86.8544 8.37856C86.9647 8.56239 87.0199 8.77194 87.0199 9.00724ZM86.8544 21.8565C86.8544 22.555 86.7111 23.0918 86.4243 23.4668C86.1448 23.8418 85.6779 24.0293 85.0235 24.0293C84.4059 24.0293 83.9684 23.8418 83.7111 23.4668C83.4611 23.0918 83.336 22.555 83.336 21.8565V15.1065C83.336 14.4079 83.4611 13.8712 83.7111 13.4962C83.9684 13.1213 84.4059 12.9337 85.0235 12.9337C85.6779 12.9337 86.1448 13.1213 86.4243 13.4962C86.7111 13.8712 86.8544 14.4079 86.8544 15.1065V21.8565Z" fill="#1D1E1C"/>
<path d="M91.9259 18.4483C91.9259 18.941 91.9626 19.4005 92.0362 19.827C92.1171 20.2535 92.2494 20.6284 92.4332 20.952C92.6244 21.2682 92.8744 21.5181 93.1832 21.702C93.4994 21.8859 93.8891 21.9777 94.3523 21.9777C94.7788 21.9777 95.1354 21.8895 95.4225 21.7131C95.7161 21.5292 95.9514 21.2792 96.1283 20.963C96.3043 20.6395 96.4295 20.2608 96.5029 19.827C96.5839 19.3932 96.6243 18.9226 96.6243 18.4153C96.6243 18.0108 96.5952 17.5991 96.5359 17.18C96.4775 16.7534 96.3674 16.3675 96.2055 16.0219C96.0436 15.6763 95.8196 15.3932 95.5326 15.1725C95.2455 14.952 94.8709 14.8417 94.4075 14.8417C93.9443 14.8417 93.5508 14.9152 93.2274 15.0623C92.9111 15.2093 92.6538 15.4336 92.4553 15.7351C92.2641 16.0365 92.1281 16.4153 92.0472 16.8711C91.9663 17.3196 91.9259 17.8454 91.9259 18.4483ZM91.9149 15.1064C92.0987 14.7167 92.334 14.3748 92.6208 14.0807C92.9075 13.7866 93.2237 13.5403 93.5693 13.3417C93.9149 13.1432 94.2752 12.9961 94.6501 12.9005C95.0328 12.7976 95.4112 12.7461 95.7858 12.7461C96.4625 12.7461 97.0733 12.8969 97.6173 13.1983C98.1613 13.4998 98.6243 13.9116 99.0065 14.4336C99.3961 14.9484 99.6945 15.5586 99.9006 16.2645C100.106 16.963 100.209 17.7131 100.209 18.5145C100.209 19.3453 100.098 20.1064 99.878 20.7976C99.6653 21.4888 99.3594 22.0844 98.9622 22.5843C98.5726 23.077 98.102 23.463 97.5505 23.7424C97.0065 24.0219 96.4003 24.1615 95.7312 24.1615C94.9076 24.1615 94.1722 23.9704 93.5251 23.588C92.8781 23.2057 92.3413 22.6689 91.9149 21.9777V25.9484C91.9149 26.6468 91.7715 27.1836 91.4847 27.5586C91.2052 27.9336 90.7384 28.1212 90.0839 28.1212C89.4663 28.1212 89.0288 27.9336 88.7715 27.5586C88.5215 27.1836 88.3965 26.6468 88.3965 25.9484V15.1064C88.3965 14.4078 88.5215 13.8711 88.7715 13.4961C89.0288 13.1212 89.4663 12.9336 90.0839 12.9336C90.7384 12.9336 91.2052 13.1212 91.4847 13.4961C91.7715 13.8711 91.9149 14.4078 91.9149 15.1064Z" fill="#1D1E1C"/>
<path d="M104.089 15.8901C104.089 16.1768 104.214 16.401 104.464 16.5628C104.714 16.7173 105.059 16.8459 105.501 16.9489C105.92 17.0444 106.35 17.1364 106.791 17.2246C107.233 17.3128 107.663 17.4158 108.082 17.5335C108.5 17.6437 108.894 17.7761 109.262 17.9304C109.629 18.0849 109.953 18.2797 110.232 18.515C110.512 18.743 110.732 19.0224 110.894 19.3532C111.056 19.6768 111.137 20.0665 111.137 20.5223C111.137 21.0959 111.019 21.607 110.784 22.0554C110.548 22.4967 110.214 22.8716 109.78 23.1805C109.354 23.4893 108.843 23.7283 108.247 23.8974C107.651 24.0665 106.994 24.1547 106.273 24.1621C105.589 24.1621 104.931 24.118 104.298 24.0297C103.667 23.9489 103.104 23.8201 102.611 23.6437C102.126 23.4672 101.736 23.2503 101.442 22.9929C101.148 22.7283 101.001 22.4195 101.001 22.0665C101.001 21.7576 101.1 21.5187 101.299 21.3496C101.497 21.1805 101.75 21.0959 102.06 21.0959C102.178 21.0959 102.317 21.1179 102.479 21.1621C102.641 21.2062 102.817 21.2614 103.008 21.3275C103.199 21.3937 103.401 21.4672 103.615 21.5481C103.835 21.6216 104.063 21.6878 104.298 21.7466C104.593 21.8276 104.894 21.8937 105.203 21.9452C105.519 21.9893 105.843 22.0114 106.174 22.0114C106.379 22.0114 106.581 21.9929 106.78 21.9562C106.979 21.9121 107.155 21.8496 107.31 21.7688C107.472 21.6805 107.603 21.5702 107.707 21.4378C107.81 21.3055 107.872 21.1437 107.894 20.9526C107.916 20.9084 107.935 20.8643 107.949 20.8201C107.964 20.7761 107.971 20.7246 107.971 20.6658C107.971 20.4599 107.875 20.276 107.684 20.1143C107.501 19.9526 107.239 19.8238 106.901 19.7283C106.335 19.596 105.795 19.4746 105.28 19.3643C104.766 19.254 104.288 19.1364 103.846 19.0114C103.412 18.8864 103.015 18.743 102.655 18.5812C102.302 18.4195 102.001 18.2209 101.75 17.9856C101.508 17.7503 101.316 17.4672 101.177 17.1364C101.044 16.8055 100.979 16.4047 100.979 15.9341C100.979 15.4268 101.092 14.9746 101.32 14.5775C101.555 14.1731 101.891 13.8349 102.324 13.5628C102.758 13.2907 103.283 13.0849 103.902 12.9452C104.519 12.7981 105.218 12.7246 105.997 12.7246C107.394 12.7246 108.456 12.8937 109.185 13.2319C109.92 13.5628 110.288 13.9966 110.288 14.5335C110.288 14.8349 110.188 15.0665 109.989 15.2282C109.791 15.3827 109.552 15.4599 109.273 15.4599C109.125 15.4599 108.971 15.4342 108.809 15.3827C108.655 15.3239 108.467 15.2614 108.247 15.1952C108.026 15.1217 107.762 15.0592 107.453 15.0077C107.152 14.9489 106.776 14.9194 106.328 14.9194C105.989 14.9194 105.681 14.9341 105.401 14.9636C105.129 14.9929 104.894 15.0444 104.695 15.1179C104.504 15.1915 104.354 15.2907 104.243 15.4158C104.14 15.5408 104.089 15.6988 104.089 15.8901Z" fill="#1D1E1C"/>
<path d="M115.614 19.9373C115.614 20.2829 115.658 20.5843 115.747 20.8417C115.842 21.0991 115.971 21.316 116.132 21.4925C116.294 21.6616 116.482 21.7903 116.694 21.8784C116.915 21.9594 117.151 21.9999 117.4 21.9999C117.695 21.9999 117.978 21.9557 118.25 21.8674C118.522 21.7792 118.761 21.6431 118.967 21.4593C119.18 21.2755 119.349 21.0439 119.475 20.7645C119.599 20.4851 119.662 20.1579 119.662 19.7829V15.1064C119.662 14.4079 119.787 13.8711 120.036 13.4961C120.294 13.1212 120.732 12.9336 121.349 12.9336C122.003 12.9336 122.47 13.1212 122.75 13.4961C123.037 13.8711 123.18 14.4079 123.18 15.1064V21.8564C123.18 22.555 123.037 23.0917 122.75 23.4667C122.47 23.8417 122.003 24.0292 121.349 24.0292C120.732 24.0292 120.294 23.8417 120.036 23.4667C119.787 23.0917 119.662 22.555 119.662 21.8564C119.507 22.1947 119.305 22.5035 119.055 22.7829C118.812 23.0623 118.526 23.305 118.195 23.5108C117.871 23.7094 117.511 23.8638 117.114 23.9741C116.724 24.0844 116.301 24.1395 115.845 24.1395C115.353 24.1395 114.879 24.0549 114.422 23.8859C113.974 23.7094 113.577 23.452 113.232 23.1137C112.886 22.7682 112.611 22.3417 112.404 21.8344C112.198 21.327 112.096 20.7351 112.096 20.0586V15.1064C112.096 14.4079 112.221 13.8711 112.47 13.4961C112.728 13.1212 113.165 12.9336 113.783 12.9336C114.437 12.9336 114.904 13.1212 115.184 13.4961C115.471 13.8711 115.614 14.4079 115.614 15.1064V19.9373Z" fill="#1D1E1C"/>
<path d="M124.777 15.1064C124.777 14.4078 124.903 13.8711 125.153 13.4961C125.41 13.1212 125.847 12.9336 126.465 12.9336C127.12 12.9336 127.587 13.1212 127.866 13.4961C128.152 13.8711 128.296 14.4078 128.296 15.1064C128.443 14.7534 128.642 14.4336 128.892 14.1468C129.149 13.8527 129.44 13.6028 129.763 13.3968C130.094 13.191 130.451 13.0329 130.833 12.9226C131.215 12.8049 131.612 12.7461 132.024 12.7461C132.407 12.7461 132.781 12.7976 133.149 12.9005C133.524 12.9961 133.87 13.1542 134.186 13.3748C134.509 13.588 134.792 13.8601 135.035 14.191C135.278 14.5218 135.465 14.9189 135.598 15.3821C135.826 14.8895 136.094 14.4741 136.403 14.1358C136.711 13.7976 137.047 13.5255 137.406 13.3196C137.767 13.1137 138.142 12.9667 138.532 12.8784C138.929 12.7902 139.325 12.7461 139.722 12.7461C140.193 12.7461 140.642 12.8307 141.068 12.9997C141.502 13.1689 141.88 13.4263 142.204 13.7719C142.535 14.11 142.796 14.5403 142.987 15.0623C143.186 15.577 143.285 16.18 143.285 16.8711V21.8564C143.285 22.5549 143.142 23.0917 142.855 23.4667C142.576 23.8417 142.108 24.0292 141.454 24.0292C140.837 24.0292 140.399 23.8417 140.142 23.4667C139.892 23.0917 139.767 22.5549 139.767 21.8564V17.0255C139.767 16.6946 139.722 16.4005 139.635 16.1432C139.546 15.8784 139.421 15.6579 139.259 15.4814C139.105 15.2976 138.921 15.1615 138.708 15.0733C138.495 14.9777 138.266 14.9299 138.024 14.9299C137.722 14.9299 137.436 14.9777 137.164 15.0733C136.892 15.1689 136.653 15.316 136.447 15.5145C136.248 15.7131 136.087 15.9667 135.961 16.2755C135.844 16.5843 135.785 16.9557 135.785 17.3895V21.8564C135.785 22.5549 135.641 23.0917 135.355 23.4667C135.076 23.8417 134.609 24.0292 133.954 24.0292C133.336 24.0292 132.899 23.8417 132.642 23.4667C132.391 23.0917 132.266 22.5549 132.266 21.8564V17.235C132.266 16.4778 132.108 15.9042 131.793 15.5145C131.483 15.1248 131.061 14.9299 130.524 14.9299C130.208 14.9299 129.913 14.9814 129.641 15.0844C129.369 15.1873 129.134 15.338 128.935 15.5366C128.737 15.7351 128.579 15.9814 128.461 16.2755C128.351 16.5696 128.296 16.9079 128.296 17.2902V21.8564C128.296 22.5549 128.152 23.0917 127.866 23.4667C127.587 23.8417 127.12 24.0292 126.465 24.0292C125.847 24.0292 125.41 23.8417 125.153 23.4667C124.903 23.0917 124.777 22.5549 124.777 21.8564V15.1064Z" fill="#1D1E1C"/>
<path d="M16.7291 22.1476C13.6103 22.1476 11.082 19.6194 11.082 16.5006C11.082 13.3818 13.6103 10.8535 16.7291 10.8535C19.8479 10.8535 22.3761 13.3818 22.3761 16.5006C22.3761 19.6194 19.8479 22.1476 16.7291 22.1476Z" fill="#1D1E1C"/>
<path d="M5.78947 18.4293C4.153 18.7178 3.03129 20.2986 3.65948 21.8371C4.5365 23.9848 5.93568 25.8984 7.74962 27.3938C10.3434 29.5319 13.615 30.6743 16.9759 30.6157C20.3368 30.5571 23.5666 29.3011 26.0842 27.0737C27.8448 25.516 29.1764 23.5547 29.978 21.3777C30.5521 19.8183 29.3758 18.2775 27.7302 18.0463C26.0848 17.8151 24.6073 19.0128 23.7945 20.4622C23.354 21.2478 22.782 21.9606 22.0968 22.5668C20.6523 23.8448 18.7992 24.5654 16.8709 24.5991C14.9426 24.6327 13.0655 23.9772 11.5773 22.7504C10.8713 22.1685 10.2749 21.4761 9.80716 20.7063C8.94429 19.2862 7.42594 18.1407 5.78947 18.4293Z" fill="#1D1E1C"/>
<path d="M30.7374 18.2647C30.8095 17.6867 30.8466 17.0979 30.8466 16.5005C30.8466 8.7035 24.526 2.38281 16.729 2.38281C8.93201 2.38281 2.61133 8.7035 2.61133 16.5005C2.61133 17.2672 2.67246 18.0197 2.79011 18.7534C3.43857 17.8656 4.45063 17.2319 5.54381 17.0392C6.72657 16.8306 7.80152 17.1175 8.71041 17.6537C8.65671 17.277 8.62893 16.892 8.62893 16.5005C8.62893 12.027 12.2555 8.40041 16.729 8.40041C21.2025 8.40041 24.829 12.027 24.829 16.5005C24.829 16.7954 24.8132 17.0867 24.7825 17.3735C25.6722 16.8057 26.7367 16.4813 27.9262 16.6485C29.0252 16.803 30.0584 17.4006 30.7374 18.2647Z" fill="#1D1E1C"/>
</svg>
