<svg width="153" height="19" viewBox="0 0 153 19" fill="none" xmlns="http://www.w3.org/2000/svg">
<path d="M76.4215 16.3734H71.3015V2.68538H76.4215V16.3734ZM71.8015 15.8734H75.9215V3.18538H71.8015V15.8734ZM83.5455 16.3734H78.5285V2.68538H89.0105C90.5121 2.56378 92.0075 2.98535 93.2245 3.87338C93.7484 4.35269 94.1545 4.94657 94.411 5.60867C94.6676 6.27078 94.7677 6.98321 94.7035 7.69038C94.7783 8.91235 94.3894 10.1176 93.6145 11.0654C92.6975 12.1174 91.1715 12.6594 89.0795 12.6784C88.5525 12.6924 84.6035 12.6784 83.5485 12.6784L83.5455 16.3734ZM79.0255 15.8734H83.0455V12.1734H83.2965C83.3475 12.1734 88.4745 12.1894 89.0675 12.1734C91.0165 12.1564 92.4175 11.6734 93.2365 10.7304C93.9263 9.87283 94.2689 8.78753 94.1965 7.68937C94.258 7.05575 94.1727 6.41647 93.9473 5.82112C93.7218 5.22577 93.3623 4.69035 92.8965 4.25638C91.7681 3.44648 90.3875 3.06631 89.0035 3.18438H79.0285L79.0255 15.8734ZM87.9485 9.60338H83.0115V5.87737H87.9815C88.3338 5.82869 88.6927 5.86982 89.0248 5.99691C89.357 6.12401 89.6517 6.33295 89.8815 6.60437C90.09 6.95131 90.1883 7.35335 90.1635 7.75737C90.1822 8.13247 90.1012 8.50585 89.9285 8.83938C89.6914 9.12526 89.3847 9.34532 89.0379 9.47843C88.6912 9.61153 88.316 9.65318 87.9485 9.59938V9.60338ZM83.5115 9.10338H87.9485C88.7685 9.10338 89.2765 8.93238 89.5015 8.58038C89.6254 8.32453 89.6815 8.04113 89.6645 7.75737C89.6864 7.45943 89.6218 7.16151 89.4785 6.89937L89.4725 6.89038C89.2345 6.54038 88.7615 6.37737 87.9815 6.37737H83.5115V9.10338ZM103.829 16.5754C99.3385 16.5754 96.6585 15.4604 95.6375 13.1674C95.4704 12.7245 95.357 12.2632 95.2995 11.7934L95.2555 11.5054H100.598L100.633 11.7154C100.674 11.9286 100.765 12.1293 100.897 12.3014C101.108 12.5564 101.812 12.9844 104.148 12.9844C106.956 12.9844 106.956 12.4914 106.956 12.2264C106.956 11.7794 106.631 11.6264 104.341 11.3824L103.906 11.3414C103.044 11.2604 101.954 11.1574 101.456 11.1144C97.2555 10.7344 95.3805 9.42938 95.3805 6.88438C95.3805 4.21138 98.5715 2.48438 103.511 2.48438C107.54 2.48438 110.136 3.54638 111.225 5.64338C111.483 6.13116 111.657 6.65936 111.738 7.20537L111.773 7.48637H106.425L106.403 7.26038C106.382 7.08376 106.307 6.91807 106.187 6.78638C105.987 6.51837 105.355 6.07538 103.393 6.07538C100.984 6.07538 100.652 6.38337 100.652 6.71537C100.652 7.15837 101.413 7.31537 103.852 7.57638C104.869 7.65938 106.504 7.82738 107.064 7.89538C110.585 8.27738 112.156 9.55037 112.156 12.0244C112.157 14.0994 110.712 16.5754 103.829 16.5754ZM95.8395 12.0054C95.8896 12.3352 95.9758 12.6584 96.0965 12.9694C97.0265 15.0584 99.5565 16.0754 103.829 16.0754C107.401 16.0754 111.66 15.3754 111.66 12.0244C111.66 9.83138 110.27 8.74538 107.011 8.39237C106.451 8.32438 104.826 8.15738 103.811 8.07338C101.211 7.79138 100.154 7.64138 100.154 6.71537C100.154 5.75738 101.293 5.57538 103.395 5.57538C105.056 5.57538 106.129 5.87538 106.584 6.48038C106.708 6.62943 106.802 6.80132 106.86 6.98637H111.194C111.107 6.59962 110.969 6.22607 110.784 5.87538C109.784 3.95638 107.341 2.98438 103.513 2.98438C98.8775 2.98438 95.8825 4.51538 95.8825 6.88438C95.8825 9.14438 97.5635 10.2604 101.502 10.6164C102.002 10.6594 103.091 10.7624 103.955 10.8444L104.393 10.8854C106.52 11.1094 107.458 11.2494 107.458 12.2264C107.458 13.2784 106.245 13.4844 104.15 13.4844C102.212 13.4844 100.988 13.1934 100.515 12.6204C100.369 12.4377 100.259 12.229 100.191 12.0054H95.8395ZM121.656 16.5584C116.436 16.5584 113.556 14.4474 113.556 10.6134V2.68538H118.608V10.6134C118.608 11.9284 119.785 12.6824 121.836 12.6824C123.796 12.6824 125.013 11.8954 125.013 10.6304V2.68538H130.013V11.0334C130.018 14.5444 126.969 16.5584 121.653 16.5584H121.656ZM114.056 3.18538V10.6134C114.056 15.3514 118.814 16.0584 121.656 16.0584C124.594 16.0584 129.521 15.4054 129.521 11.0334V3.18538H125.521V10.6304C125.521 12.1804 124.077 13.1824 121.844 13.1824C119.51 13.1824 118.116 12.2224 118.116 10.6134V3.18538H114.056ZM151.201 16.3734H146.433V10.1934L143.729 16.3734H139.57L136.894 10.2054V16.3734H132.109V2.68538H138.403L141.673 10.2324L145.101 2.68538H151.207L151.201 16.3734ZM146.933 15.8734H150.701V3.18538H145.419L141.657 11.4644L138.071 3.18538H132.605V15.8734H136.39V7.79938L139.89 15.8764H143.39L146.927 7.81137L146.933 15.8734ZM6.78252 2.93538H2.22852V16.1234H14.8125V12.6124H6.78252V2.93538ZM24.0045 2.63538C18.1915 2.63538 15.1345 5.39038 15.1345 9.43538C15.1345 14.0054 18.3435 16.3234 24.0045 16.3234C30.2365 16.3234 32.8575 13.6354 32.8575 9.43538C32.8575 5.17038 29.9005 2.63338 24.0045 2.63338V2.63538ZM23.9875 6.06238C24.3832 6.06052 24.7787 6.08355 25.1715 6.13138L20.0805 11.2224C19.8396 10.6775 19.7221 10.086 19.7365 9.49038C19.7365 7.42138 20.7785 6.06037 23.9875 6.06037V6.06238ZM24.0045 12.9504C23.6232 12.9521 23.2422 12.9307 22.8635 12.8864L27.9635 7.78638C28.1954 8.32228 28.3064 8.90271 28.2885 9.48638C28.2885 11.4994 27.3285 12.9484 24.0045 12.9484V12.9504ZM41.8805 11.1504H46.5675C46.4985 11.4757 46.3547 11.7804 46.1475 12.0404C45.1758 12.832 43.9357 13.2172 42.6865 13.1154C42.0577 13.1827 41.4219 13.114 40.822 12.914C40.2221 12.7141 39.6721 12.3875 39.2095 11.9564C38.7356 11.2613 38.5105 10.4265 38.5705 9.58738C38.4938 8.70812 38.7386 7.83089 39.2595 7.11837C39.9145 6.37837 41.0235 6.05938 42.6535 6.05938C43.6906 5.97351 44.7264 6.23986 45.5935 6.81538C45.8668 7.03246 46.0711 7.32429 46.1815 7.65538H50.5285C50.4969 7.10985 50.3657 6.57471 50.1415 6.07638C49.1005 3.95938 46.6805 2.69938 42.5655 2.69938C38.9865 2.69938 36.5845 3.79138 35.2575 5.43838C34.3811 6.62774 33.9312 8.07782 33.9805 9.55438C33.9238 11.0644 34.3621 12.5515 35.2285 13.7894C36.5395 15.4894 38.8745 16.3254 41.6805 16.3254C43.546 16.4555 45.3988 15.933 46.9215 14.8474L47.0395 16.1234H50.6505V8.31138H41.8805V11.1504ZM60.8995 2.63238C55.0875 2.63238 52.0295 5.38737 52.0295 9.43237C52.0295 14.0024 55.2375 16.3204 60.8995 16.3204C67.1325 16.3204 69.7535 13.6324 69.7535 9.43237C69.7535 5.17037 66.7965 2.63338 60.8995 2.63338V2.63238ZM60.8835 6.05938C61.2688 6.05823 61.6538 6.08028 62.0365 6.12538L56.9655 11.1994C56.7321 10.6605 56.6185 10.0775 56.6325 9.49038C56.6285 7.42138 57.6745 6.05938 60.8835 6.05938ZM60.8995 12.9474C60.5081 12.9491 60.117 12.9263 59.7285 12.8794L64.8455 7.76138C65.0862 8.30441 65.2014 8.8947 65.1825 9.48838C65.1845 11.4994 64.2285 12.9484 60.8995 12.9484V12.9474Z" fill="#1D1E1C"/>
</svg>
