<svg width="133" height="35" viewBox="0 0 133 35" fill="none" xmlns="http://www.w3.org/2000/svg">
<path d="M30.7922 12.25C31.1522 12.25 31.2722 12.38 31.2722 12.73V20.65H35.3422C35.6922 20.65 35.8222 20.78 35.8222 21.13V21.83C35.8222 22.18 35.6922 22.31 35.3422 22.31H29.9822C29.6322 22.31 29.4922 22.18 29.4922 21.83V12.73C29.4922 12.38 29.6322 12.25 29.9822 12.25H30.7922Z" fill="#1D1E1C"/>
<path d="M39.3711 15.7391C39.3711 13.4291 40.8311 12.0391 43.3711 12.0391C45.9111 12.0391 47.3711 13.4291 47.3711 15.7391V18.8191C47.3711 21.1291 45.9011 22.5191 43.3711 22.5191C40.8411 22.5191 39.3711 21.1291 39.3711 18.8191V15.7391ZM45.6911 15.7391C45.6911 14.4391 44.8811 13.7391 43.4211 13.7391C41.9611 13.7391 41.1611 14.4491 41.1611 15.7391V18.8391C41.1611 20.1491 41.9611 20.8391 43.4211 20.8391C44.8811 20.8391 45.6911 20.1191 45.6911 18.8391V15.7391Z" fill="#1D1E1C"/>
<path d="M59.2812 16.8C59.6712 16.8 59.7612 16.93 59.7612 17.28V19.18C59.7718 19.6275 59.6821 20.0718 59.4987 20.4801C59.3152 20.8885 59.0428 21.2506 58.7012 21.54C57.8529 22.2155 56.7833 22.5506 55.7012 22.48C53.1112 22.48 51.7012 21.09 51.7012 18.78V15.68C51.7012 13.4 53.1612 12 55.7012 12C57.7012 12 59.0012 12.79 59.5512 14.37C59.582 14.4294 59.5985 14.4951 59.5994 14.5619C59.6003 14.6288 59.5856 14.695 59.5565 14.7551C59.5274 14.8153 59.4846 14.8679 59.4316 14.9087C59.3786 14.9494 59.3168 14.9773 59.2512 14.99L58.4712 15.26C58.1312 15.38 57.9912 15.31 57.8712 14.96C57.7055 14.5329 57.4022 14.1731 57.0092 13.9377C56.6162 13.7023 56.156 13.6045 55.7012 13.66C54.2312 13.66 53.4312 14.37 53.4312 15.66V18.84C53.4312 20.15 54.2412 20.84 55.7012 20.84C57.1612 20.84 58.0612 20.17 58.0612 19.19V18.45H55.8912C55.5312 18.45 55.4012 18.31 55.4012 17.96V17.28C55.4012 16.93 55.5312 16.8 55.8912 16.8H59.2812Z" fill="#1D1E1C"/>
<path d="M63.8906 15.7391C63.8906 13.4291 65.3506 12.0391 67.8906 12.0391C70.4306 12.0391 71.8906 13.4291 71.8906 15.7391V18.8191C71.8906 21.1291 70.4206 22.5191 67.8906 22.5191C65.3606 22.5191 63.8906 21.1291 63.8906 18.8191V15.7391ZM70.2006 15.7391C70.2006 14.4391 69.3906 13.7391 67.9406 13.7391C66.4906 13.7391 65.6706 14.4491 65.6706 15.7391V18.8391C65.6706 20.1491 66.4806 20.8391 67.9406 20.8391C69.4006 20.8391 70.2006 20.1191 70.2006 18.8391V15.7391Z" fill="#1D1E1C"/>
<path d="M76.6016 12.54C76.6016 12.32 76.6716 12.25 76.8916 12.25H77.3516C77.5716 12.25 77.6216 12.32 77.6216 12.54V22.02C77.6216 22.24 77.6216 22.31 77.3516 22.31H76.8916C76.6716 22.31 76.6016 22.24 76.6016 22.02V12.54Z" fill="#1D1E1C"/>
<path d="M86.7309 12.25C87.5637 12.25 88.3623 12.5808 88.9512 13.1697C89.5401 13.7585 89.8709 14.5572 89.8709 15.39C89.8709 16.2228 89.5401 17.0215 88.9512 17.6103C88.3623 18.1992 87.5637 18.53 86.7309 18.53H83.7309V22.02C83.7309 22.24 83.6809 22.31 83.4709 22.31H83.0009C82.7909 22.31 82.7109 22.24 82.7109 22.02V12.54C82.7109 12.32 82.7909 12.25 83.0009 12.25H86.7309ZM86.6409 17.54C86.9272 17.54 87.2107 17.4836 87.4752 17.3741C87.7396 17.2645 87.98 17.1039 88.1824 16.9015C88.3848 16.6991 88.5454 16.4587 88.655 16.1943C88.7645 15.9298 88.8209 15.6463 88.8209 15.36C88.8209 15.0737 88.7645 14.7902 88.655 14.5257C88.5454 14.2613 88.3848 14.0209 88.1824 13.8185C87.98 13.6161 87.7396 13.4555 87.4752 13.3459C87.2107 13.2364 86.9272 13.18 86.6409 13.18H83.6409V17.54H86.6409Z" fill="#1D1E1C"/>
<path d="M97.6818 12.0491C98.4539 11.9639 99.2328 12.13 99.903 12.5227C100.573 12.9155 101.099 13.5139 101.402 14.2291C101.482 14.3891 101.402 14.5191 101.242 14.5991L100.802 14.7991C100.622 14.8691 100.552 14.8591 100.442 14.6691C100.215 14.1383 99.8257 13.6933 99.3295 13.3985C98.8334 13.1037 98.2563 12.9743 97.6818 13.0291C95.9918 13.0291 95.0718 13.6991 95.0718 14.8991C95.062 15.2658 95.1851 15.6238 95.4186 15.9068C95.652 16.1898 95.9799 16.3789 96.3418 16.4391C96.8796 16.6145 97.4373 16.722 98.0018 16.7591C98.6851 16.7955 99.3592 16.9337 100.002 17.1691C100.495 17.325 100.919 17.6456 101.203 18.0772C101.487 18.5088 101.614 19.025 101.562 19.5391C101.562 21.4091 100.202 22.5391 97.7018 22.5391C96.8818 22.6329 96.0544 22.4429 95.3575 22.0007C94.6606 21.5586 94.1362 20.8909 93.8718 20.1091C93.8541 20.0735 93.8446 20.0344 93.8438 19.9946C93.843 19.9548 93.8511 19.9154 93.8673 19.8791C93.8835 19.8428 93.9076 19.8105 93.9378 19.7846C93.9679 19.7586 94.0034 19.7397 94.0418 19.7291L94.4818 19.5691C94.5164 19.5549 94.5537 19.5481 94.5911 19.5491C94.6285 19.5501 94.6653 19.5589 94.6992 19.5749C94.733 19.5909 94.7632 19.6137 94.7877 19.642C94.8123 19.6703 94.8307 19.7033 94.8418 19.7391C95.0655 20.304 95.4633 20.783 95.9775 21.1067C96.4917 21.4303 97.0957 21.5818 97.7018 21.5391C99.5918 21.5391 100.522 20.8791 100.522 19.5391C100.54 19.1869 100.432 18.8398 100.217 18.5596C100.003 18.2795 99.6963 18.0844 99.3518 18.0091C98.8344 17.8548 98.3008 17.7608 97.7618 17.7291L96.6818 17.5891C96.3438 17.5174 96.01 17.4272 95.6818 17.3191C95.3576 17.2212 95.0554 17.0616 94.7918 16.8491C94.5265 16.6089 94.3174 16.3133 94.1791 15.9832C94.0409 15.6531 93.9769 15.2967 93.9918 14.9391C94.0618 13.1891 95.3718 12.0491 97.6818 12.0491Z" fill="#1D1E1C"/>
<path d="M106.952 18.89C106.994 19.5972 107.305 20.2615 107.821 20.7472C108.337 21.2329 109.019 21.5033 109.727 21.5033C110.435 21.5033 111.117 21.2329 111.633 20.7472C112.149 20.2615 112.459 19.5972 112.502 18.89V12.54C112.502 12.32 112.572 12.25 112.792 12.25H113.252C113.472 12.25 113.542 12.32 113.542 12.54V18.88C113.542 21.15 112.202 22.52 109.732 22.52C107.262 22.52 105.922 21.15 105.922 18.88V12.54C105.922 12.32 105.992 12.25 106.202 12.25H106.672C106.882 12.25 106.952 12.32 106.952 12.54V18.89Z" fill="#1D1E1C"/>
<path d="M127.342 12.2498C127.562 12.2498 127.632 12.3198 127.632 12.5398V22.0198C127.632 22.2398 127.562 22.3098 127.342 22.3098H126.922C126.712 22.3098 126.642 22.2398 126.642 22.0198V16.2498C126.642 15.4103 126.699 14.5717 126.812 13.7398H126.752C126.44 14.5005 126.075 15.2389 125.662 15.9498L123.512 19.7398C123.486 19.8056 123.44 19.8618 123.381 19.9011C123.322 19.9403 123.253 19.9608 123.182 19.9598H122.902C122.83 19.9602 122.76 19.9395 122.699 19.9005C122.639 19.8614 122.591 19.8056 122.562 19.7398L120.382 15.9098C119.995 15.2091 119.661 14.4804 119.382 13.7298H119.322C119.424 14.5693 119.478 15.4141 119.482 16.2598V22.0198C119.482 22.2398 119.412 22.3098 119.192 22.3098H118.802C118.582 22.3098 118.512 22.2398 118.512 22.0198V12.5398C118.512 12.3198 118.582 12.2498 118.802 12.2498H119.162C119.244 12.2422 119.327 12.2601 119.398 12.3013C119.47 12.3425 119.527 12.4049 119.562 12.4798L123.062 18.6998L126.542 12.5398C126.652 12.3298 126.712 12.2998 126.932 12.2998L127.342 12.2498Z" fill="#1D1E1C"/>
<path d="M13.0015 20.79V28.02C13.0015 28.2972 12.8914 28.563 12.6954 28.7589C12.4995 28.9549 12.2337 29.065 11.9565 29.065C11.6794 29.065 11.4136 28.9549 11.2176 28.7589C11.0216 28.563 10.9115 28.2972 10.9115 28.02V20.8C11.2025 21.0125 11.5513 21.1311 11.9115 21.14C12.3041 21.1512 12.6888 21.0277 13.0015 20.79ZM21.9015 18.7C21.6363 18.7 21.3819 18.8054 21.1944 18.9929C21.0069 19.1804 20.9015 19.4348 20.9015 19.7V20.96C20.9015 21.2372 21.0116 21.503 21.2076 21.6989C21.4035 21.8949 21.6693 22.005 21.9465 22.005C22.2237 22.005 22.4895 21.8949 22.6854 21.6989C22.8814 21.503 22.9915 21.2372 22.9915 20.96V19.75C22.9993 19.6066 22.9761 19.4632 22.9235 19.3296C22.8709 19.196 22.7902 19.0752 22.6867 18.9756C22.5833 18.876 22.4596 18.7998 22.3242 18.7522C22.1887 18.7047 22.0445 18.6869 21.9015 18.7ZM8.64148 23.53C8.28165 23.5192 7.93331 23.4008 7.64148 23.19V30.44C7.64148 30.7185 7.7521 30.9856 7.94902 31.1825C8.14593 31.3794 8.413 31.49 8.69148 31.49C8.96996 31.49 9.23703 31.3794 9.43394 31.1825C9.63086 30.9856 9.74148 30.7185 9.74148 30.44V23.24C9.41493 23.4511 9.02964 23.5527 8.64148 23.53ZM18.6415 16.53C18.506 16.5232 18.3706 16.5441 18.2434 16.5913C18.1163 16.6385 18.0001 16.7111 17.9018 16.8046C17.8036 16.8982 17.7255 17.0107 17.6721 17.1354C17.6188 17.2601 17.5913 17.3944 17.5915 17.53V23.1C17.5915 23.3785 17.7021 23.6456 17.899 23.8425C18.096 24.0394 18.363 24.15 18.6415 24.15C18.92 24.15 19.1871 24.0394 19.384 23.8425C19.5809 23.6456 19.6915 23.3785 19.6915 23.1V17.6C19.6995 17.4557 19.6761 17.3114 19.6229 17.177C19.5697 17.0426 19.4881 16.9213 19.3835 16.8215C19.2789 16.7217 19.154 16.6457 19.0173 16.5989C18.8806 16.552 18.7353 16.5353 18.5915 16.55L18.6415 16.53ZM15.3215 18.67C14.9448 18.6674 14.5782 18.5487 14.2715 18.33V25.6C14.2715 25.8785 14.3821 26.1456 14.579 26.3425C14.776 26.5394 15.043 26.65 15.3215 26.65C15.6 26.65 15.867 26.5394 16.064 26.3425C16.2609 26.1456 16.3715 25.8785 16.3715 25.6V18.34C16.0543 18.5763 15.667 18.6995 15.2715 18.69L15.3215 18.67ZM6.37148 24.24V3.93C6.36885 3.68243 6.26865 3.44591 6.09265 3.27178C5.91665 3.09765 5.67906 2.99999 5.43148 3H5.21148C4.9639 2.99999 4.72631 3.09765 4.55031 3.27178C4.37431 3.44591 4.27411 3.68243 4.27148 3.93V24.24C4.27148 24.4893 4.37052 24.7284 4.5468 24.9047C4.72308 25.081 4.96218 25.18 5.21148 25.18H5.43148C5.68079 25.18 5.91988 25.081 6.09616 24.9047C6.27245 24.7284 6.37148 24.4893 6.37148 24.24ZM8.75148 22.76H8.53148C8.28218 22.76 8.04308 22.661 7.8668 22.4847C7.69052 22.3084 7.59148 22.0693 7.59148 21.82V6.35C7.59412 6.10244 7.69431 5.8659 7.87031 5.69178C8.04631 5.51765 8.2839 5.41999 8.53148 5.42H8.75148C8.99906 5.41999 9.23665 5.51765 9.41265 5.69178C9.58865 5.8659 9.68885 6.10244 9.69148 6.35V21.84C9.69148 22.0893 9.59244 22.3284 9.41616 22.5047C9.23988 22.681 9.00078 22.78 8.75148 22.78V22.76ZM12.0615 20.38H11.8315C11.5849 20.38 11.3483 20.282 11.1739 20.1076C10.9995 19.9332 10.9015 19.6967 10.9015 19.45V8.75C10.9002 8.62703 10.9233 8.50502 10.9694 8.39103C11.0155 8.27704 11.0838 8.17334 11.1703 8.08592C11.2568 7.9985 11.3598 7.9291 11.4733 7.88174C11.5868 7.83438 11.7085 7.80999 11.8315 7.81H12.0615C12.3091 7.81264 12.5456 7.91283 12.7197 8.08883C12.8939 8.26483 12.9915 8.50242 12.9915 8.75V19.45C12.9915 19.6967 12.8935 19.9332 12.7191 20.1076C12.5447 20.282 12.3082 20.38 12.0615 20.38ZM15.3715 17.93H15.1615C14.9139 17.93 14.6763 17.8324 14.5003 17.6582C14.3243 17.4841 14.2241 17.2476 14.2215 17V11.24C14.2133 11.1116 14.2315 10.9829 14.2751 10.8618C14.3186 10.7408 14.3866 10.6299 14.4747 10.5362C14.5628 10.4424 14.6692 10.3678 14.7874 10.3168C14.9055 10.2659 15.0328 10.2397 15.1615 10.24H15.3815C15.6308 10.24 15.8699 10.339 16.0462 10.5153C16.2225 10.6916 16.3215 10.9307 16.3215 11.18V16.98C16.3228 17.1043 16.2995 17.2276 16.2528 17.3428C16.2062 17.458 16.1372 17.5628 16.0497 17.6512C15.9623 17.7395 15.8583 17.8096 15.7435 17.8575C15.6288 17.9054 15.5058 17.93 15.3815 17.93H15.3715ZM18.6915 15.78H18.4715C18.2222 15.78 17.9831 15.681 17.8068 15.5047C17.6305 15.3284 17.5315 15.0893 17.5315 14.84V13.35C17.5341 13.1024 17.6343 12.8659 17.8103 12.6918C17.9863 12.5176 18.2239 12.42 18.4715 12.42H18.6915C18.9391 12.42 19.1767 12.5176 19.3527 12.6918C19.5287 12.8659 19.6289 13.1024 19.6315 13.35V14.84C19.6315 15.0876 19.5339 15.3252 19.3597 15.5012C19.1856 15.6772 18.9491 15.7774 18.7015 15.78H18.6915Z" fill="#1D1E1C"/>
</svg>
