<svg width="155" height="29" viewBox="0 0 155 29" fill="none" xmlns="http://www.w3.org/2000/svg">
<g clip-path="url(#clip0_3042_629)">
<path d="M14.2723 28.5C22.0045 28.5 28.2723 22.2322 28.2723 14.5V4.7C28.2723 3.58609 27.8298 2.5178 27.0421 1.73015C26.2545 0.942499 25.1862 0.5 24.0723 0.5L14.9723 0.5V6.6418C14.9723 8.0432 15.0577 9.495 15.7927 10.6878C16.3188 11.5426 17.0227 12.2743 17.8566 12.8332C18.6905 13.392 19.6348 13.765 20.6255 13.9267L20.8936 13.9701C21.0041 14.0079 21.1 14.0793 21.168 14.1743C21.2359 14.2693 21.2724 14.3832 21.2724 14.5C21.2724 14.6168 21.2359 14.7307 21.168 14.8257C21.1 14.9207 21.0041 14.9921 20.8936 15.0299L20.6255 15.0733C19.178 15.3098 17.8413 15.9949 16.8042 17.032C15.7672 18.0691 15.082 19.4057 14.8456 20.8532L14.8022 21.1213C14.7644 21.2318 14.693 21.3278 14.598 21.3957C14.503 21.4636 14.3891 21.5002 14.2723 21.5002C14.1555 21.5002 14.0416 21.4636 13.9466 21.3957C13.8515 21.3278 13.7801 21.2318 13.7424 21.1213L13.699 20.8532C13.5372 19.8625 13.1642 18.9182 12.6054 18.0844C12.0465 17.2505 11.3149 16.5466 10.4601 16.0204C9.26726 15.2854 7.81546 15.2 6.41406 15.2H0.289062C0.655162 22.6067 6.77526 28.5 14.2723 28.5Z" fill="#1D1E1C"/>
<path d="M0.271484 13.8H6.41328C7.81468 13.8 9.26648 13.7146 10.4593 12.9796C11.3917 12.4051 12.1766 11.6202 12.7511 10.6878C13.4861 9.495 13.5715 8.0432 13.5715 6.6418V0.5H4.47148C3.35758 0.5 2.28929 0.942499 1.50164 1.73015C0.713983 2.5178 0.271484 3.58609 0.271484 4.7L0.271484 13.8ZM32.79 1.9C32.79 2.2713 32.6425 2.6274 32.3799 2.88995C32.1174 3.1525 31.7613 3.3 31.39 3.3C31.0187 3.3 30.6626 3.1525 30.4 2.88995C30.1375 2.6274 29.99 2.2713 29.99 1.9C29.99 1.5287 30.1375 1.1726 30.4 0.91005C30.6626 0.6475 31.0187 0.5 31.39 0.5C31.7613 0.5 32.1174 0.6475 32.3799 0.91005C32.6425 1.1726 32.79 1.5287 32.79 1.9ZM148.469 8.9728C152.383 8.9728 154.271 11.7063 154.271 14.8724V20.8189H150.176V15.578C150.176 14.143 149.652 12.9586 148.151 12.9586C146.649 12.9586 146.149 14.143 146.149 15.578V20.8182H142.053V15.578C142.053 14.143 141.552 12.9586 140.05 12.9586C138.549 12.9586 138.025 14.143 138.025 15.578V20.8182H133.93V14.8717C133.93 11.7056 135.818 8.9721 139.732 8.9721C141.871 8.9721 143.418 9.8149 144.124 11.2044C144.874 9.8149 146.513 8.9714 148.469 8.9714V8.9728ZM126.57 17.174C127.89 17.174 128.459 15.9665 128.459 14.5308V9.4278H132.554V15.032C132.554 18.3808 130.597 21.1605 126.57 21.1605C122.543 21.1605 120.586 18.3815 120.586 15.032V9.4278H124.682V14.5308C124.682 15.9658 125.25 17.174 126.57 17.174ZM114.564 21.1829C111.993 21.1829 110.332 20.2946 109.353 18.5635L112.311 16.9003C112.721 17.629 113.335 17.9937 114.359 17.9937C115.201 17.9937 115.587 17.6976 115.587 17.3329C115.587 15.9434 109.581 17.356 109.581 12.9369C109.581 10.7949 111.401 9.0638 114.495 9.0638C117.203 9.0638 118.682 10.3847 119.342 11.6608L116.384 13.3464C116.134 12.6632 115.36 12.253 114.586 12.253C113.995 12.253 113.676 12.5036 113.676 12.8452C113.676 14.2578 119.683 12.9593 119.683 17.2419C119.683 19.6338 117.339 21.1829 114.564 21.1829ZM100.255 26.0584H96.1589V15.1006C96.1589 11.6146 98.7755 9.0862 102.416 9.0862C105.966 9.0862 108.673 11.7973 108.673 15.1006C108.673 18.7455 106.261 21.1605 102.644 21.1605C101.802 21.1605 100.96 20.9099 100.255 20.5221V26.0584ZM102.416 17.3105C103.713 17.3105 104.578 16.3081 104.578 15.123C104.578 13.9162 103.713 12.9362 102.416 12.9362C101.119 12.9362 100.255 13.9162 100.255 15.1237C100.255 16.3081 101.119 17.3105 102.416 17.3105ZM92.0562 8.221C90.7136 8.221 89.5992 7.1045 89.5992 5.7605C89.5992 4.4165 90.7136 3.3 92.0562 3.3C93.3988 3.3 94.5139 4.4165 94.5139 5.7605C94.5139 7.1045 93.3988 8.221 92.0562 8.221ZM90.0087 9.4278H94.1044V20.8189H90.0087V9.4278ZM82.1505 21.1605C78.6008 21.1605 75.8932 18.427 75.8932 15.1006C75.8932 11.7973 78.6008 9.0638 82.1505 9.0638C85.7002 9.0638 88.4078 11.7973 88.4078 15.1006C88.4078 18.427 85.7002 21.1605 82.1505 21.1605ZM82.1505 17.3105C83.4476 17.3105 84.3121 16.3081 84.3121 15.123C84.3121 13.9162 83.4476 12.9138 82.1505 12.9138C80.8534 12.9138 79.9889 13.9162 79.9889 15.123C79.9889 16.3081 80.8534 17.3105 82.1505 17.3105ZM68.1596 26.4C65.3386 26.4 63.2904 25.147 62.2439 22.914L65.634 21.0919C65.998 21.8668 66.6805 22.6641 68.091 22.6641C69.5708 22.6641 70.5487 21.7296 70.6628 20.0895C70.1168 20.5683 69.2516 20.9323 67.9552 20.9323C64.7919 20.9323 62.2432 18.4949 62.2432 15.0775C62.2432 11.7749 64.9515 9.0862 68.5012 9.0862C72.1419 9.0862 74.7585 11.6153 74.7585 15.1006V19.6114C74.7585 23.712 71.9137 26.4 68.1596 26.4ZM68.4326 17.083C69.6611 17.083 70.5942 16.2395 70.5942 14.9865C70.5942 13.7566 69.6618 12.9362 68.4326 12.9362C67.2265 12.9362 66.271 13.7566 66.271 14.9872C66.271 16.2402 67.2265 17.0823 68.4326 17.0823V17.083ZM55.2964 21.1605C51.7467 21.1605 49.0384 18.427 49.0384 15.1006C49.0384 11.7973 51.7467 9.0638 55.2964 9.0638C58.8454 9.0638 61.5537 11.7973 61.5537 15.1006C61.5537 18.427 58.8461 21.1605 55.2964 21.1605ZM55.2964 17.3105C56.5935 17.3105 57.458 16.3081 57.458 15.123C57.458 13.9162 56.5935 12.9138 55.2964 12.9138C53.9993 12.9138 53.1348 13.9162 53.1348 15.123C53.1348 16.3081 53.9993 17.3105 55.2964 17.3105ZM41.5806 5.442V16.9458H48.3615V20.8189H41.0115C38.418 20.8189 37.3715 19.4518 37.3715 17.2874V5.442H41.5806Z" fill="#1D1E1C"/>
</g>
<defs>
<clipPath id="clip0_3042_629">
<rect width="154" height="28" fill="white" transform="translate(0.271484 0.5)"/>
</clipPath>
</defs>
</svg>
