<svg width="49" height="48" viewBox="0 0 49 48" fill="none" xmlns="http://www.w3.org/2000/svg">
<g clip-path="url(#clip0_3042_651)">
<path d="M42.5197 21.7031C42.6169 22.4648 42.6657 23.232 42.666 23.9999C42.6688 27.3633 41.7285 30.66 39.952 33.5158C38.1754 36.3716 35.6338 38.6721 32.6156 40.1561C29.5974 41.6401 26.2235 42.2482 22.8771 41.9113C19.5308 41.5743 16.3459 40.3059 13.6841 38.2499C18.4072 37.0949 23.9629 34.7006 29.1416 31.7249C34.6616 28.5543 39.321 25.0237 42.5197 21.7031ZM46.6241 11.3774C45.1897 8.90432 41.4041 8.34745 35.6554 9.7537C32.9939 7.69577 29.8086 6.42553 26.4614 6.08726C23.1141 5.74899 19.7391 6.35625 16.7197 7.84007C13.7003 9.32389 11.1576 11.6248 9.38043 14.4813C7.60323 17.3379 6.6628 20.6357 6.66598 23.9999C6.66621 24.7716 6.71506 25.5425 6.81223 26.3081C1.62035 31.6874 1.69535 34.8749 2.70973 36.6224C3.66598 38.2799 5.66098 38.9999 8.28598 38.9999C10.1085 38.9622 11.9203 38.7105 13.6841 38.2499C12.717 37.5023 11.8275 36.6593 11.0291 35.7337C7.78723 36.2737 5.7791 35.9212 5.30473 35.1168C5.03098 34.6462 5.18285 33.7593 5.72098 32.6793C6.25306 31.6678 6.89982 30.721 7.64848 29.8574C7.64936 29.8519 7.64936 29.8462 7.64848 29.8406V29.8556C8.3926 32.0086 9.53778 34.0012 11.0235 35.7281C14.9497 35.0737 20.6779 33.1199 27.6416 29.1187C32.916 26.0981 38.541 21.8756 41.6891 18.1537C40.9478 15.9977 39.8024 14.0027 38.3141 12.2756L38.2897 12.2474C38.2897 12.2568 38.3066 12.2643 38.3141 12.2756C40.9785 11.8349 43.446 11.8687 44.0329 12.8831C44.2054 13.1774 44.2204 13.6181 44.061 14.1956C43.7441 15.3787 42.9004 16.7324 41.6929 18.1574C42.0899 19.3092 42.3682 20.4985 42.5235 21.7068C44.8672 19.2693 46.4272 16.9537 46.9579 14.9718C47.3216 13.5956 47.211 12.3881 46.6241 11.3774Z" fill="#1D1E1C"/>
</g>
<defs>
<clipPath id="clip0_3042_651">
<rect width="48" height="48" fill="white" transform="translate(0.666016)"/>
</clipPath>
</defs>
</svg>
