<svg width="49" height="48" viewBox="0 0 49 48" fill="none" xmlns="http://www.w3.org/2000/svg">
<g clip-path="url(#clip0_3042_667)">
<path d="M27.3328 15.0003C27.3328 14.6025 27.4908 14.2209 27.7721 13.9396C28.0534 13.6583 28.435 13.5003 28.8328 13.5003H46.8328C47.2306 13.5003 47.6121 13.6583 47.8934 13.9396C48.1748 14.2209 48.3328 14.6025 48.3328 15.0003C48.3328 15.3981 48.1748 15.7796 47.8934 16.0609C47.6121 16.3423 47.2306 16.5003 46.8328 16.5003H28.8328C28.435 16.5003 28.0534 16.3423 27.7721 16.0609C27.4908 15.7796 27.3328 15.3981 27.3328 15.0003ZM46.8328 22.5003H28.8328C28.435 22.5003 28.0534 22.6583 27.7721 22.9396C27.4908 23.2209 27.3328 23.6025 27.3328 24.0003C27.3328 24.3981 27.4908 24.7796 27.7721 25.0609C28.0534 25.3423 28.435 25.5003 28.8328 25.5003H46.8328C47.2306 25.5003 47.6121 25.3423 47.8934 25.0609C48.1748 24.7796 48.3328 24.3981 48.3328 24.0003C48.3328 23.6025 48.1748 23.2209 47.8934 22.9396C47.6121 22.6583 47.2306 22.5003 46.8328 22.5003ZM46.8328 31.5003H33.3328C32.935 31.5003 32.5534 31.6583 32.2721 31.9396C31.9908 32.2209 31.8328 32.6025 31.8328 33.0003C31.8328 33.3981 31.9908 33.7796 32.2721 34.0609C32.5534 34.3423 32.935 34.5003 33.3328 34.5003H46.8328C47.2306 34.5003 47.6121 34.3423 47.8934 34.0609C48.1748 33.7796 48.3328 33.3981 48.3328 33.0003C48.3328 32.6025 48.1748 32.2209 47.8934 31.9396C47.6121 31.6583 47.2306 31.5003 46.8328 31.5003ZM20.8247 26.6253C22.3134 25.4787 23.4058 23.8948 23.9488 22.0959C24.4918 20.297 24.4582 18.3732 23.8525 16.5944C23.2469 14.8156 22.0997 13.2709 20.5717 12.1771C19.0438 11.0833 17.2119 10.4951 15.3328 10.4951C13.4537 10.4951 11.6217 11.0833 10.0938 12.1771C8.56592 13.2709 7.4187 14.8156 6.81306 16.5944C6.20742 18.3732 6.17375 20.297 6.71676 22.0959C7.25977 23.8948 8.35222 25.4787 9.84091 26.6253C5.97466 28.2622 2.92779 31.5565 1.87966 35.6253C1.82241 35.847 1.81669 36.0789 1.86293 36.3032C1.90916 36.5274 2.00614 36.7381 2.14641 36.9191C2.28668 37.1001 2.46653 37.2466 2.67218 37.3474C2.87782 37.4481 3.1038 37.5004 3.33279 37.5003H27.3328C27.5618 37.5004 27.7878 37.4481 27.9934 37.3474C28.199 37.2466 28.3789 37.1001 28.5192 36.9191C28.6594 36.7381 28.7564 36.5274 28.8026 36.3032C28.8489 36.0789 28.8432 35.847 28.7859 35.6253C27.7378 31.5547 24.6909 28.2603 20.8247 26.6253Z" fill="#1D1E1C"/>
</g>
<defs>
<clipPath id="clip0_3042_667">
<rect width="48" height="48" fill="white" transform="translate(0.332031)"/>
</clipPath>
</defs>
</svg>
